<svg width="160" height="30" fill="none" xmlns="http://www.w3.org/2000/svg"><mask id="a" maskUnits="userSpaceOnUse" x="0" y="0" width="160" height="30"><path fill="#C4C4C4" d="M0 0h160v30H0z"/></mask><g mask="url(#a)" fill="#111"><path d="M-149 15l-40 15h1440l-40-15a113.92 113.92 0 0 0-80 0 113.92 113.92 0 0 1-80 0 113.92 113.92 0 0 0-80 0 113.92 113.92 0 0 1-80 0 113.92 113.92 0 0 0-80 0 113.92 113.92 0 0 1-80 0 113.92 113.92 0 0 0-80 0 113.92 113.92 0 0 1-80 0 113.92 113.92 0 0 0-80 0 113.92 113.92 0 0 1-80 0 113.92 113.92 0 0 0-80 0 113.92 113.92 0 0 1-80 0 113.92 113.92 0 0 0-80 0 113.92 113.92 0 0 1-80 0 113.92 113.92 0 0 0-80 0 113.92 113.92 0 0 1-80 0 113.92 113.92 0 0 0-80 0z"/><path opacity=".4" d="M-229 15l-40 15h1440l-40-15a113.92 113.92 0 0 0-80 0 113.92 113.92 0 0 1-80 0 113.92 113.92 0 0 0-80 0 113.92 113.92 0 0 1-80 0 113.92 113.92 0 0 0-80 0 113.92 113.92 0 0 1-80 0 113.92 113.92 0 0 0-80 0 113.92 113.92 0 0 1-80 0 113.92 113.92 0 0 0-80 0 113.92 113.92 0 0 1-80 0 113.92 113.92 0 0 0-80 0 113.92 113.92 0 0 1-80 0 113.92 113.92 0 0 0-80 0 113.92 113.92 0 0 1-80 0 113.92 113.92 0 0 0-80 0 113.92 113.92 0 0 1-80 0 113.92 113.92 0 0 0-80 0z"/></g></svg>