<svg width="36" height="36" fill="none" xmlns="http://www.w3.org/2000/svg"><path d="M30.021 5.98c8.342 8.341 6.202 23.198-6.42 28.198a15.273 15.273 0 0 1-11.202 0C-.223 29.178-2.363 14.32 5.98 5.98c6.64-6.64 17.403-6.64 24.042 0z" stroke="#BABABA" stroke-width="1.5" stroke-linecap="round" stroke-linejoin="round"/><path d="M18.635 8.394a.898.898 0 1 1-1.27 1.269.898.898 0 0 1 1.27-1.27zm-5.969 8.969l.294 2.727c.051.478.285.92.65 1.232l1.249 1.067.536 3.457a1.89 1.89 0 0 0 1.868 1.6h1.559a1.89 1.89 0 0 0 1.849-1.502l.744-3.555 1.077-1.084c.302-.304.491-.703.536-1.128l.303-2.816a2.832 2.832 0 0 0-2.817-3.136h-5.032a2.831 2.831 0 0 0-2.816 3.138z" stroke="#BABABA" stroke-width="1.5" stroke-linecap="round" stroke-linejoin="round"/></svg>