<svg width="38" height="42" fill="none" xmlns="http://www.w3.org/2000/svg"><path d="M10 5.529l17.86 10.387V36.47M1 21l18 10.149L37 20.84M28 5.53L10 15.836v20.635m-8.444-25.47L19 21m0 0l17.442-10M19 21v20m18-12.064V13.064a4.12 4.12 0 0 0-2.078-3.575L21.078 1.553a4.183 4.183 0 0 0-4.156 0L3.078 9.489A4.12 4.12 0 0 0 1 13.064v15.872a4.12 4.12 0 0 0 2.078 3.575l13.844 7.936a4.183 4.183 0 0 0 4.156 0l13.844-7.936A4.12 4.12 0 0 0 37 28.936z" stroke="#BABABA" stroke-width="1.5" stroke-linecap="round" stroke-linejoin="round"/></svg>