<svg width="36" height="36" fill="none" xmlns="http://www.w3.org/2000/svg"><path d="M1.996 19.554L5.25 16.3m0 0l3.446 3.446M5.25 16.3v10.2m0 0a4.25 4.25 0 1 0 0 8.5 4.25 4.25 0 1 0 0-8.5zM16.446 1.996L19.7 5.25m0 0l-3.446 3.446M19.7 5.25H9.5m0 0a4.25 4.25 0 1 0-8.5 0 4.25 4.25 0 1 0 8.5 0zm24.504 11.196L30.75 19.7m0 0l-3.446-3.446M30.75 19.7V9.5m0 0a4.25 4.25 0 1 0 0-8.5 4.25 4.25 0 1 0 0 8.5zM19.554 34.004L16.3 30.75m0 0l3.446-3.446M16.3 30.75h10.2m0 0a4.25 4.25 0 1 0 8.5 0 4.25 4.25 0 1 0-8.5 0z" stroke="#BABABA" stroke-width="1.5" stroke-linecap="round" stroke-linejoin="round"/></svg>