<svg width="40" height="40" fill="none" xmlns="http://www.w3.org/2000/svg"><path fill-rule="evenodd" clip-rule="evenodd" d="M20.007 9.729c-5.672 0-10.263 4.596-10.263 10.263 0 5.671 4.596 10.263 10.263 10.263 5.671 0 10.263-4.596 10.263-10.263 0-5.672-4.597-10.263-10.263-10.263zm0 16.925a6.66 6.66 0 0 1-6.662-6.662 6.66 6.66 0 0 1 6.662-6.662 6.66 6.66 0 0 1 6.661 6.662 6.658 6.658 0 0 1-6.661 6.662z" fill="#fff"/><path d="M33.075 9.324a2.398 2.398 0 1 1-4.797 0 2.398 2.398 0 0 1 4.797 0z" fill="#fff"/><path fill-rule="evenodd" clip-rule="evenodd" d="M28.247.126c-3.68-.172-12.795-.164-16.479 0-3.236.151-6.091.933-8.393 3.235C-.067 6.803-.035 11.315.01 17.673c.005.747.01 1.52.01 2.319 0 .748-.004 1.471-.008 2.17-.036 6.572-.06 11.037 3.363 14.461 3.449 3.447 8.01 3.413 14.297 3.367.753-.006 1.531-.012 2.335-.012h.108c7.623 0 10.271 0 12.983-1.05 3.705-1.438 6.502-4.75 6.775-10.698.173-3.681.163-12.795 0-16.478C39.543 4.731 35.775.472 28.247.126zm5.824 33.952c-2.322 2.323-5.472 2.315-12.278 2.3a755.44 755.44 0 0 0-1.835-.003h-1.144c-7.502.006-10.645.008-12.969-2.322-2.417-2.405-2.377-6.066-2.319-11.378.01-.86.02-1.762.02-2.71 0-.803-.008-1.587-.015-2.35-.073-7.969-.124-13.53 8.31-13.963l.097-.003c2.047-.073 2.733-.097 7.997-.097l.075.05c.761 0 1.508-.007 2.238-.013 7.79-.071 13.648-.125 14.03 8.323.095 2.108.117 2.742.117 8.078v1.391c.007 7.235.01 10.352-2.324 12.697z" fill="#fff"/></svg>