<svg width="24" height="24" fill="none" xmlns="http://www.w3.org/2000/svg"><path d="M22.944 7.468c-.051-1.169-.24-1.973-.511-2.669a5.368 5.368 0 0 0-1.273-1.951 5.415 5.415 0 0 0-1.947-1.268c-.7-.27-1.5-.46-2.67-.511C15.367 1.013 14.993 1 12.005 1c-2.987 0-3.361.013-4.535.064-1.169.052-1.973.241-2.669.512-.74.28-1.401.709-1.952 1.272A5.416 5.416 0 0 0 1.58 4.795c-.27.7-.46 1.5-.511 2.669C1.013 8.64 1 9.015 1 12.002s.013 3.361.064 4.534c.052 1.17.241 1.973.512 2.67.28.738.714 1.4 1.272 1.95a5.41 5.41 0 0 0 1.948 1.268c.7.271 1.5.46 2.67.512C8.638 22.986 9.012 23 12 23c2.988 0 3.362-.013 4.535-.064 1.17-.052 1.973-.241 2.67-.512a5.628 5.628 0 0 0 3.22-3.219c.27-.7.459-1.5.51-2.669.052-1.173.065-1.547.065-4.534s-.004-3.36-.056-4.534zm-1.981 8.982c-.048 1.075-.228 1.655-.379 2.042a3.65 3.65 0 0 1-2.089 2.088c-.387.15-.971.331-2.042.379-1.16.051-1.508.064-4.444.064s-3.289-.013-4.445-.064c-1.075-.048-1.655-.228-2.042-.378a3.386 3.386 0 0 1-1.264-.821 3.42 3.42 0 0 1-.82-1.264c-.151-.387-.332-.971-.379-2.041-.052-1.16-.064-1.509-.064-4.444 0-2.936.012-3.288.064-4.444.047-1.074.228-1.655.378-2.041a3.34 3.34 0 0 1 .826-1.264 3.416 3.416 0 0 1 1.263-.82c.387-.151.972-.332 2.042-.38 1.16-.05 1.51-.064 4.445-.064 2.94 0 3.288.013 4.445.065 1.074.047 1.655.228 2.042.378.477.176.91.456 1.263.82.366.358.645.787.821 1.265.15.386.331.97.379 2.041.051 1.16.064 1.508.064 4.444 0 2.935-.013 3.279-.064 4.44z" fill="#fff"/><path d="M12.004 6.35a5.653 5.653 0 0 0-5.652 5.652 5.653 5.653 0 0 0 11.305 0 5.653 5.653 0 0 0-5.653-5.651zm0 9.318a3.667 3.667 0 1 1 0-7.334 3.667 3.667 0 0 1 0 7.334zM19.2 6.127a1.32 1.32 0 1 1-2.64 0 1.32 1.32 0 0 1 2.64 0z" fill="#fff"/></svg>