<svg width="32" height="32" fill="none" xmlns="http://www.w3.org/2000/svg"><path d="M4.6 6.267c.768-.9 1.643-1.702 2.603-2.397m17.13 24.6A14.92 14.92 0 0 1 16 31c-1.52 0-2.985-.23-4.367-.65M1.872 11A14.926 14.926 0 0 0 1 16M11.633 1.65C13.015 1.23 14.48 1 16 1c8.285 0 15 6.715 15 15a14.85 14.85 0 0 1-2.562 8.333M22 19.998H10L13.998 24m4.004-16.002L22 12.002H10m-2.797 16.13A15.041 15.041 0 0 1 1.875 21" stroke="url(#paint0_linear)" stroke-width="2" stroke-linecap="round" stroke-linejoin="round"/><defs><linearGradient id="paint0_linear" x1="1" y1="1" x2="31" y2="31" gradientUnits="userSpaceOnUse"><stop stop-color="#00A424"/><stop offset="1" stop-color="#178852"/></linearGradient></defs></svg>