<svg width="32" height="32" fill="none" xmlns="http://www.w3.org/2000/svg"><path d="M18.592 14.705l-3.242 3.242-1.943-1.945m-5.282 1.355l1.107 1.448.24 1.802c.133 1 .918 1.786 1.918 1.92l1.808.241 1.447 1.107c.8.612 1.912.612 2.712 0l1.448-1.107 1.802-.24c1-.133 1.786-.918 1.92-1.918l.241-1.807c0 .002.56-.731 1.107-1.446.612-.8.612-1.912 0-2.712l-1.107-1.448-.24-1.802a2.233 2.233 0 0 0-1.918-1.92l-1.808-.242-1.447-1.106a2.233 2.233 0 0 0-2.712 0l-1.448 1.106-1.802.239c-1 .133-1.786.918-1.92 1.918l-.241 1.807c0-.002-.56.731-1.107 1.446a2.236 2.236 0 0 0 0 2.714zM31 16c0 8.284-6.716 15-15 15-8.284 0-15-6.716-15-15C1 7.716 7.716 1 16 1c8.284 0 15 6.716 15 15z" stroke="url(#paint0_linear)" stroke-width="2" stroke-linecap="round" stroke-linejoin="round"/><defs><linearGradient id="paint0_linear" x1="1" y1="1" x2="31" y2="31" gradientUnits="userSpaceOnUse"><stop stop-color="#00A424"/><stop offset="1" stop-color="#178852"/></linearGradient></defs></svg>