<svg width="32" height="32" fill="none" xmlns="http://www.w3.org/2000/svg"><path d="M3.783 24.682a15.084 15.084 0 0 0 3.535 3.535M1.225 13.5A15.075 15.075 0 0 0 1 16c0 .853.088 1.685.225 2.5M3.783 7.318a15.057 15.057 0 0 1 3.535-3.536M13.5 30.775c.815.137 1.647.225 2.5.225 8.285 0 15-6.715 15-15S24.285 1 16 1c-.853 0-1.685.088-2.5.225m9.167 11.442L14.333 21l-5-5" stroke="url(#paint0_linear)" stroke-width="2" stroke-linecap="round" stroke-linejoin="round"/><defs><linearGradient id="paint0_linear" x1="1" y1="1" x2="31" y2="31" gradientUnits="userSpaceOnUse"><stop stop-color="#00A424"/><stop offset="1" stop-color="#178852"/></linearGradient></defs></svg>