<svg width="32" height="32" fill="none" xmlns="http://www.w3.org/2000/svg"><path d="M14.5 17.5v2.977c0 .828.67 1.5 1.5 1.5h6.915a1.5 1.5 0 0 0 1.422-1.976l-.838-2.5.841-2.525A1.5 1.5 0 0 0 22.917 13h-5.42M8.506 28.992V17.505m18.1-12.112c5.858 5.858 5.858 15.356 0 21.214-5.857 5.858-15.355 5.858-21.213 0-5.857-5.858-5.857-15.356 0-21.214 5.858-5.857 15.356-5.857 21.214 0zM16 17.5H8.5v-6a1.5 1.5 0 0 1 1.501-1.5h6c.827 0 1.5.67 1.5 1.5V16c0 .828-.673 1.5-1.5 1.5z" stroke="url(#paint0_linear)" stroke-width="2" stroke-linecap="round" stroke-linejoin="round"/><defs><linearGradient id="paint0_linear" x1="1" y1="1" x2="31" y2="31" gradientUnits="userSpaceOnUse"><stop stop-color="#00A424"/><stop offset="1" stop-color="#178852"/></linearGradient></defs></svg>