<svg width="22" height="18" fill="none" xmlns="http://www.w3.org/2000/svg"><path d="M18.119 3v12a2 2 0 0 1-2 2H5.88a2 2 0 0 1-2-2V3a2 2 0 0 1 2-2h10.24a2 2 0 0 1 1.999 2z" stroke="#BABABA" stroke-width="1.6" stroke-linecap="round" stroke-linejoin="round"/><path d="M18.12 3h1.601a1.5 1.5 0 0 1 1.5 1.5v9a1.5 1.5 0 0 1-1.5 1.5H18.12M3.88 15H2.277a1.5 1.5 0 0 1-1.5-1.5v-9a1.5 1.5 0 0 1 1.5-1.5H3.88" stroke="#BABABA" stroke-width="1.468" stroke-linecap="round" stroke-linejoin="round"/><path d="M10.402 6.836l2.771 1.639a.61.61 0 0 1 0 1.05l-2.77 1.639a.61.61 0 0 1-.92-.525V7.361a.61.61 0 0 1 .92-.525z" stroke="#BABABA" stroke-width="1.5" stroke-linecap="round" stroke-linejoin="round"/></svg>