<svg width="32" height="32" fill="none" xmlns="http://www.w3.org/2000/svg"><path d="M16 24.053c-2.84.014-5.727-1.566-6.667-4.473m15-8.18c-.658.808-1.558 1.267-2.5 1.267-.941 0-1.816-.459-2.5-1.267m-6.666 0c-.659.808-1.559 1.267-2.5 1.267-.942 0-1.817-.459-2.5-1.267m18.94-6.007c5.858 5.858 5.858 15.356 0 21.214-5.858 5.858-15.356 5.858-21.214 0-5.857-5.858-5.857-15.356 0-21.214 5.858-5.857 15.356-5.857 21.214 0z" stroke="url(#paint0_linear)" stroke-width="2" stroke-linecap="round" stroke-linejoin="round"/><defs><linearGradient id="paint0_linear" x1="1" y1="1" x2="31" y2="31" gradientUnits="userSpaceOnUse"><stop stop-color="#F90"/><stop offset="1" stop-color="red"/></linearGradient></defs></svg>