<svg width="32" height="32" fill="none" xmlns="http://www.w3.org/2000/svg"><path d="M17.538 12.923l5.129 2.052-9.23 10.255 1.025-7.178L9.333 16l9.23-9.23-1.025 6.153z" stroke="#323232" stroke-width="2" stroke-linecap="round" stroke-linejoin="round"/><path d="M17.538 12.923l5.129 2.052-9.23 10.255 1.025-7.178L9.333 16l9.23-9.23-1.025 6.153z" stroke="url(#paint0_linear)" stroke-width="2" stroke-linecap="round" stroke-linejoin="round"/><path d="M26.607 5.393c5.858 5.858 5.858 15.356 0 21.214-5.858 5.858-15.356 5.858-21.214 0-5.857-5.858-5.857-15.356 0-21.214 5.858-5.857 15.356-5.857 21.214 0z" stroke="#323232" stroke-width="2" stroke-linecap="round" stroke-linejoin="round"/><path d="M26.607 5.393c5.858 5.858 5.858 15.356 0 21.214-5.858 5.858-15.356 5.858-21.214 0-5.857-5.858-5.857-15.356 0-21.214 5.858-5.857 15.356-5.857 21.214 0z" stroke="url(#paint1_linear)" stroke-width="2" stroke-linecap="round" stroke-linejoin="round"/><defs><linearGradient id="paint0_linear" x1="1" y1="1" x2="31" y2="31" gradientUnits="userSpaceOnUse"><stop stop-color="#F90"/><stop offset="1" stop-color="red"/></linearGradient><linearGradient id="paint1_linear" x1="1" y1="1" x2="31" y2="31" gradientUnits="userSpaceOnUse"><stop stop-color="#F90"/><stop offset="1" stop-color="red"/></linearGradient></defs></svg>