<svg width="145" height="40" fill="none" xmlns="http://www.w3.org/2000/svg"><path d="M65 16.877l3.959-12.115h3.555l3.908 12.115h-2.847l-.825-2.694h-4.364l-.825 2.694H65zm5.576-9.878l-1.6 5.236h3.184l-1.584-5.236zm7.274 9.878V8.016h2.443V9.37c.235-.452.59-.825 1.06-1.118.473-.294 1.017-.44 1.635-.44 1.224 0 2.044.513 2.46 1.541.685-1.028 1.673-1.542 2.965-1.542.865 0 1.56.283 2.089.847.539.565.808 1.412.808 2.542v5.676h-2.425v-5.405c0-1.096-.461-1.643-1.382-1.643-.494 0-.904.158-1.23.474-.314.316-.472.762-.472 1.338v5.236h-2.425v-5.405c0-1.096-.461-1.643-1.382-1.643-.494 0-.904.158-1.23.474-.314.316-.471.762-.471 1.338v5.236H77.85zm17.922.186c-.864 0-1.572-.22-2.122-.66-.55-.441-.826-1.102-.826-1.983 0-1.897 1.528-2.846 4.582-2.846h.994v-.356c0-.554-.106-.96-.32-1.22-.213-.271-.584-.407-1.111-.407-.888 0-1.388.418-1.5 1.254h-2.308c.067-1.005.46-1.762 1.18-2.27.718-.509 1.645-.763 2.78-.763 2.459 0 3.689 1.096 3.689 3.287v5.778h-2.376V15.81c-.595.835-1.482 1.253-2.662 1.253zm.725-1.711c.55 0 1.005-.141 1.364-.424.36-.282.54-.666.54-1.152v-.745h-.944c-.741 0-1.303.096-1.685.288-.37.192-.556.514-.556.966 0 .711.427 1.067 1.28 1.067zm6.409 1.525V8.016h2.443v1.406a2.787 2.787 0 0 1 1.078-1.152c.495-.305 1.09-.458 1.786-.458.91 0 1.629.288 2.157.864.539.565.808 1.418.808 2.559v5.642h-2.443V11.59c0-.61-.123-1.056-.37-1.339-.247-.294-.64-.44-1.18-.44-.55 0-.994.169-1.33.508-.337.327-.506.807-.506 1.44v5.117h-2.443zm9.523 0v-.271l4.346-6.693h-3.908V8.016h7.446v.305l-4.38 6.658h4.212v1.898h-7.716zm9.331 0V4h2.443v5.422a2.794 2.794 0 0 1 1.078-1.152c.495-.305 1.09-.458 1.786-.458.91 0 1.629.288 2.157.864.539.565.808 1.418.808 2.559v5.642h-2.442V11.59c0-.61-.124-1.056-.371-1.339-.247-.294-.64-.44-1.179-.44-.551 0-.994.169-1.331.508-.337.327-.506.807-.506 1.44v5.117h-2.443zm12.876-2.389c.381.474.915.712 1.6.712s1.213-.238 1.584-.712c.381-.474.572-1.135.572-1.982v-.119c0-.847-.191-1.508-.572-1.982-.371-.486-.899-.729-1.584-.729-.674 0-1.202.237-1.584.712-.381.463-.572 1.118-.572 1.965v.136c0 .847.185 1.513.556 1.999zm1.583 2.575c-1.336 0-2.443-.412-3.319-1.236-.876-.836-1.314-1.932-1.314-3.288v-.135c0-1.367.438-2.474 1.314-3.321.876-.847 1.988-1.27 3.336-1.27 1.348 0 2.454.417 3.319 1.253.876.825 1.314 1.92 1.314 3.287v.136c0 1.378-.438 2.485-1.314 3.32-.876.836-1.988 1.254-3.336 1.254zm6.355-.186V4H145v12.877h-2.426zM71.553 33.814c1.023 0 1.831-.361 2.427-1.084.595-.734.892-1.711.892-2.931v-.136c0-1.197-.297-2.157-.892-2.88-.596-.723-1.416-1.085-2.46-1.085-1.045 0-1.865.362-2.46 1.085-.595.711-.893 1.677-.893 2.897v.136c0 1.22.315 2.191.944 2.914.629.723 1.443 1.084 2.442 1.084zm4.448.44C74.867 35.419 73.367 36 71.503 36c-1.865 0-3.364-.576-4.498-1.728-1.123-1.164-1.685-2.643-1.685-4.44v-.135c0-1.796.584-3.27 1.752-4.422 1.168-1.164 2.65-1.745 4.448-1.745 1.82 0 3.307.564 4.464 1.694 1.157 1.13 1.736 2.598 1.736 4.405v.136c0 1.818-.573 3.315-1.719 4.49zm3.477 1.56v-8.862h2.443v1.406A2.788 2.788 0 0 1 83 27.206c.495-.305 1.09-.457 1.786-.457.91 0 1.629.288 2.157.864.539.565.808 1.418.808 2.559v5.642h-2.442v-5.287c0-.61-.124-1.056-.371-1.338-.247-.294-.64-.44-1.18-.44-.55 0-.993.169-1.33.508-.337.327-.506.807-.506 1.44v5.117h-2.443zm10.432 0V22.937h2.427v12.877H89.91zm4.722 0v-8.862h2.426v8.862h-2.426zm2.19-10.438c-.269.249-.6.373-.993.373s-.725-.124-.994-.372a1.316 1.316 0 0 1-.388-.966c0-.384.13-.7.388-.95.27-.259.6-.389.994-.389.393 0 .724.13.994.39.27.248.404.565.404.949s-.135.706-.404.965zm2.481 10.438v-8.862h2.443v1.406a2.787 2.787 0 0 1 1.078-1.152c.494-.305 1.09-.457 1.786-.457.91 0 1.629.288 2.156.864.54.565.809 1.418.809 2.559v5.642h-2.443v-5.287c0-.61-.123-1.056-.37-1.338-.247-.294-.64-.44-1.18-.44-.55 0-.994.169-1.33.508-.337.327-.506.807-.506 1.44v5.117h-2.443zm14.425.186c-1.359 0-2.465-.401-3.319-1.203-.853-.813-1.28-1.915-1.28-3.304v-.135c0-1.378.427-2.491 1.28-3.338.865-.848 1.949-1.271 3.252-1.271 1.235 0 2.257.378 3.066 1.135.82.757 1.23 1.88 1.23 3.372v.678h-6.351c.033.734.241 1.304.623 1.71.382.407.904.61 1.567.61 1.055 0 1.668-.411 1.836-1.236h2.308c-.146.96-.584 1.7-1.314 2.22-.73.508-1.696.762-2.898.762zm-2.089-5.574h3.942c-.078-1.322-.718-1.983-1.92-1.983-.55 0-1.005.175-1.365.525-.348.34-.567.825-.657 1.458zM30.916 2.292c2.587-3.154 8.065-3.043 10.481.271 4.247 4.563 8.43 9.184 12.603 13.815-1.632 1.508-3.958 2.362-6.176 2.024-2.722-.298-4.47-2.3-6.18-4.262-.578-.663-1.152-1.321-1.759-1.907a923.381 923.381 0 0 0-2.42-2.65c-2.206-2.41-4.413-4.82-6.549-7.291zm-5.368 37.627c-6.632-.746-12.155-6.994-11.79-13.717-.028-3.69 1.787-7.172 4.43-9.666 1.699 1.876 3.413 3.736 5.092 5.628-1.972 1.968-2.58 5.238-.897 7.582 1.924 3.142 6.894 3.532 9.191.602 2.108-2.207 1.966-6.037-.41-7.995-4.272-4.719-8.524-9.464-12.966-14.023-3.27 2.662-5.85 6.139-9.23 8.668C6.116 18.661 2.244 18.036 0 15.644 4.57 10.828 9.136 5.99 13.888 1.359c2.869-2.233 7.433-1.634 9.574 1.328 5.086 5.49 10.19 10.97 15.06 16.653 3.331 4.93 2.827 12.057-1.381 16.327-2.91 3.224-7.32 4.71-11.593 4.252z" fill="#222"/></svg>