<svg width="170" height="40" fill="none" xmlns="http://www.w3.org/2000/svg"><path d="M70 16.096L74.949.953h4.443l4.886 15.143h-3.56l-1.031-3.367h-5.454L73.2 16.096H70zM76.97 3.75l-2 6.544h3.98L76.97 3.75zm9.092 12.346V5.02h3.054v1.695c.294-.565.737-1.03 1.326-1.398.59-.367 1.27-.55 2.043-.55 1.53 0 2.555.642 3.075 1.927.856-1.285 2.091-1.928 3.706-1.928 1.081 0 1.951.353 2.611 1.06.674.705 1.011 1.764 1.011 3.176v7.095h-3.032V9.34c0-1.37-.576-2.054-1.727-2.054-.618 0-1.13.197-1.538.593-.393.395-.59.953-.59 1.673v6.544H92.97V9.34c0-1.37-.575-2.054-1.726-2.054-.618 0-1.13.197-1.538.593-.393.395-.59.953-.59 1.673v6.544h-3.053zm22.403.234c-1.081 0-1.965-.276-2.653-.827-.688-.55-1.032-1.377-1.032-2.478 0-2.372 1.91-3.558 5.728-3.558h1.243v-.445c0-.692-.134-1.2-.4-1.525-.267-.338-.731-.508-1.39-.508-1.109 0-1.734.523-1.875 1.567h-2.885c.085-1.256.576-2.202 1.474-2.838.899-.635 2.057-.953 3.475-.953 3.075 0 4.612 1.37 4.612 4.11v7.221h-2.969v-1.334c-.744 1.045-1.853 1.567-3.328 1.567zm.906-2.14c.688 0 1.257-.176 1.706-.53.449-.352.674-.832.674-1.44v-.931h-1.18c-.926 0-1.628.12-2.106.36-.463.24-.694.642-.694 1.207 0 .89.533 1.334 1.6 1.334zm8.012 1.906V5.02h3.053v1.758a3.484 3.484 0 0 1 1.348-1.44c.618-.381 1.362-.572 2.232-.572 1.138 0 2.036.36 2.696 1.08.674.706 1.011 1.772 1.011 3.199v7.052h-3.054V9.488c0-.762-.154-1.32-.463-1.673-.309-.367-.8-.55-1.474-.55-.688 0-1.243.211-1.664.635-.421.41-.632 1.01-.632 1.8v6.396h-3.053zm11.903 0v-.339l5.433-8.365h-4.885V5.019h9.308v.382l-5.476 8.323h5.265v2.372h-9.645zm11.665 0V0h3.053v6.777a3.484 3.484 0 0 1 1.348-1.44c.618-.381 1.362-.572 2.232-.572 1.137 0 2.036.36 2.696 1.08.673.706 1.01 1.772 1.01 3.199v7.052h-3.053V9.488c0-.762-.155-1.32-.463-1.673-.309-.367-.801-.55-1.474-.55-.688 0-1.243.211-1.664.635-.421.41-.632 1.01-.632 1.8v6.396h-3.053zm16.093-2.986c.478.593 1.145.89 2.001.89.856 0 1.516-.297 1.98-.89.477-.593.716-1.42.716-2.478v-.148c0-1.06-.239-1.885-.716-2.478-.464-.607-1.124-.911-1.98-.911-.842 0-1.502.297-1.98.89-.477.578-.716 1.397-.716 2.456v.17c0 1.059.232 1.892.695 2.499zm1.98 3.22c-1.671 0-3.054-.516-4.149-1.547-1.095-1.045-1.642-2.414-1.642-4.109v-.17c0-1.708.547-3.091 1.642-4.15 1.095-1.06 2.485-1.589 4.17-1.589s3.068.523 4.149 1.568c1.095 1.03 1.642 2.4 1.642 4.108v.17c0 1.722-.547 3.106-1.642 4.15-1.095 1.046-2.485 1.568-4.17 1.568zm7.944-.234V0H170v16.096h-3.032zM78.192 37.268c1.277 0 2.288-.452 3.032-1.356.744-.917 1.116-2.139 1.116-3.664v-.169c0-1.497-.372-2.697-1.116-3.6-.744-.904-1.769-1.356-3.074-1.356-1.306 0-2.33.452-3.075 1.355-.744.89-1.116 2.097-1.116 3.622v.17c0 1.524.393 2.739 1.18 3.642.785.904 1.803 1.356 3.053 1.356zm5.56.55C82.332 39.273 80.458 40 78.128 40s-4.205-.72-5.623-2.16c-1.404-1.455-2.106-3.304-2.106-5.55v-.169c0-2.245.73-4.087 2.19-5.527 1.46-1.455 3.313-2.182 5.56-2.182 2.274 0 4.134.706 5.58 2.118 1.446 1.412 2.17 3.247 2.17 5.507v.17c0 2.272-.717 4.143-2.149 5.611zm4.346 1.949V28.69h3.054v1.758a3.484 3.484 0 0 1 1.347-1.44c.618-.381 1.362-.572 2.233-.572 1.137 0 2.035.36 2.695 1.08.674.706 1.01 1.772 1.01 3.198v7.053h-3.053v-6.608c0-.762-.154-1.32-.463-1.673-.309-.367-.8-.55-1.474-.55-.688 0-1.243.211-1.664.635-.42.41-.631 1.01-.631 1.8v6.396h-3.054zm13.04 0V23.671h3.033v16.096h-3.033zm5.903 0V28.69h3.032v11.077h-3.032zm2.737-13.046c-.337.31-.751.466-1.242.466-.492 0-.906-.156-1.243-.466a1.643 1.643 0 0 1-.484-1.208c0-.48.161-.875.484-1.186a1.722 1.722 0 0 1 1.243-.487c.491 0 .905.163 1.242.487.337.311.506.706.506 1.186s-.169.883-.506 1.208zm3.101 13.046V28.69h3.054v1.758a3.481 3.481 0 0 1 1.347-1.44c.618-.381 1.362-.572 2.233-.572 1.137 0 2.035.36 2.695 1.08.674.706 1.011 1.772 1.011 3.198v7.053h-3.054v-6.608c0-.762-.154-1.32-.463-1.673-.309-.367-.8-.55-1.474-.55-.688 0-1.242.211-1.664.635-.421.41-.631 1.01-.631 1.8v6.396h-3.054zM130.91 40c-1.698 0-3.081-.501-4.148-1.504-1.067-1.016-1.601-2.393-1.601-4.13v-.17c0-1.722.534-3.112 1.601-4.171 1.081-1.06 2.436-1.589 4.064-1.589 1.544 0 2.822.473 3.833 1.42 1.025.945 1.537 2.35 1.537 4.214v.847h-7.939c.042.918.302 1.63.779 2.14.477.507 1.13.761 1.959.761 1.319 0 2.084-.515 2.295-1.545h2.885c-.182 1.2-.73 2.124-1.643 2.774-.912.635-2.119.953-3.622.953zm-2.611-6.968h4.928c-.098-1.652-.899-2.478-2.401-2.478-.688 0-1.256.219-1.706.657-.435.423-.709 1.03-.821 1.821zM30.916 2.292c2.587-3.154 8.065-3.043 10.481.271 4.247 4.563 8.43 9.184 12.603 13.815-1.632 1.508-3.958 2.362-6.176 2.024-2.722-.298-4.47-2.3-6.18-4.262-.578-.663-1.152-1.321-1.759-1.907a923.381 923.381 0 0 0-2.42-2.65c-2.206-2.41-4.413-4.82-6.549-7.291zm-5.368 37.627c-6.632-.746-12.155-6.994-11.79-13.717-.028-3.69 1.787-7.172 4.43-9.666 1.699 1.876 3.413 3.736 5.092 5.628-1.972 1.968-2.58 5.238-.897 7.582 1.924 3.142 6.894 3.532 9.191.602 2.108-2.207 1.966-6.037-.41-7.995-4.272-4.719-8.524-9.464-12.966-14.023-3.27 2.662-5.85 6.139-9.23 8.668C6.116 18.661 2.244 18.036 0 15.644 4.57 10.828 9.136 5.99 13.888 1.359c2.869-2.233 7.433-1.634 9.574 1.328 5.086 5.49 10.19 10.97 15.06 16.653 3.331 4.93 2.827 12.057-1.381 16.327-2.91 3.224-7.32 4.71-11.593 4.252z" fill="#404040"/></svg>