<svg width="27" height="20" fill="none" xmlns="http://www.w3.org/2000/svg"><path d="M15.458 1.146c1.294-1.577 4.033-1.522 5.24.136A579.32 579.32 0 0 1 27 8.189c-.816.754-1.979 1.18-3.088 1.012-1.36-.149-2.235-1.15-3.09-2.13-.29-.332-.576-.662-.88-.954-.401-.443-.805-.884-1.21-1.325-1.102-1.205-2.206-2.41-3.274-3.646zM12.774 19.96c-3.316-.373-6.078-3.498-5.895-6.859-.014-1.845.894-3.586 2.215-4.833.85.938 1.706 1.868 2.546 2.814-.986.984-1.29 2.62-.449 3.791.962 1.57 3.447 1.766 4.596.3 1.054-1.103.983-3.017-.205-3.997-2.136-2.359-4.262-4.731-6.483-7.01-1.635 1.33-2.925 3.068-4.615 4.333-1.425.831-3.362.52-4.484-.677C2.285 5.414 4.568 2.995 6.944.679c1.434-1.116 3.717-.817 4.787.665 2.543 2.744 5.095 5.484 7.53 8.326 1.666 2.465 1.413 6.028-.69 8.163-1.456 1.613-3.66 2.355-5.797 2.127z" fill="#fff"/></svg>